<?xml version="1.0" encoding="utf-8"?>
<!-- Svg Vector Icons : http://www.onlinewebfonts.com/icon -->
<!DOCTYPE svg PUBLIC "-//W3C//DTD SVG 1.1//EN" "http://www.w3.org/Graphics/SVG/1.1/DTD/svg11.dtd">
<svg version="1.1" xmlns="http://www.w3.org/2000/svg" xmlns:xlink="http://www.w3.org/1999/xlink" x="0px" y="0px" viewBox="0 0 1000 1000" enable-background="new 0 0 1000 1000" xml:space="preserve">
<metadata> Svg Vector Icons : http://www.onlinewebfonts.com/icon </metadata>
<g><g transform="translate(0.000000,511.000000) scale(0.100000,-0.100000)"><path style="fill:#56abe4" d="M3896.2,4358.2c-120.5-72.7-120.5-74.6-120.5-883.8c0-692.5,1.9-736.5,38.3-793.9c74.6-124.3,44-120.5,1189.9-120.5c996.6,0,1040.6,1.9,1100,38.3c120.5,72.7,120.5,74.6,120.5,880s0,807.3-120.5,880c-59.3,36.3-103.3,38.3-1103.8,38.3C3999.5,4396.4,3955.5,4394.5,3896.2,4358.2z"/><path style="fill:#56abe4" d="M1059.3,3141.5c-447.6-95.6-834-485.9-927.8-935.4c-42.1-200.9-42.1-5212.8,0-5413.6c95.6-455.3,482.1-841.7,937.3-937.3c200.9-42.1,7661.3-42.1,7862.2,0c455.3,95.6,841.7,482.1,937.4,937.3c42.1,200.9,42.1,5212.8,0,5413.6c-72.7,348.2-325.2,673.4-640.8,830.2c-269.7,132-302.2,135.8-1409.8,135.8h-979.4l-5.7-386.4c-5.7-367.3-7.6-394.1-53.6-484c-59.3-122.4-174.1-237.2-296.5-296.5l-95.6-47.8H5000H3613.1l-120.5,65c-132,70.8-208.5,153-275.5,288.9c-40.2,78.4-44,118.6-49.7,474.4l-7.7,386.4l-987.1-1.9C1403.7,3170.2,1156.9,3162.6,1059.3,3141.5z M3379.7,694.9c344.3-89.9,612.1-369.2,682.9-711.6c36.3-172.2,15.3-596.8-38.3-751.8c-70.8-210.4-166.4-373-309.9-528l-70.8-76.5l176-34.4c537.5-101.4,989-355.8,1124.8-633.2c38.3-78.4,47.8-132,51.6-294.6c9.6-265.9-15.3-348.1-137.7-470.6c-61.2-61.2-126.3-105.2-176-120.5c-112.9-32.5-2924.9-32.5-3037.7,0c-105.2,30.6-264,189.4-294.6,294.6c-38.3,132-28.7,428.5,17.2,554.8c109,292.7,566.2,560.5,1143.9,669.5l174.1,34.4l-72.7,76.5c-135.8,141.5-237.2,315.6-309.9,528c-53.6,154.9-74.6,579.6-38.3,751.8C2369.7,490.2,2890,823.1,3379.7,694.9z M8531.3,673.8c101.4-74.6,132-135.8,132-256.3c0-120.5-30.6-181.7-132-256.3c-51.6-38.3-76.5-40.2-1040.6-45.9c-660-3.8-1012,0-1059.8,15.3c-193.2,55.5-267.8,321.4-135.8,480.1c97.5,114.8,74.6,112.9,1176.5,107.1C8454.8,714,8479.7,714,8531.3,673.8z M8531.3-550.4c101.4-74.6,132-135.8,132-256.3s-30.6-181.7-132-256.3c-51.6-38.3-76.5-40.2-1040.6-45.9c-660-3.8-1012,0-1059.8,15.3c-193.2,55.5-267.8,321.4-135.8,480.1c97.5,114.8,74.6,112.9,1176.5,107.1C8454.8-510.3,8479.7-510.3,8531.3-550.4z M8531.3-1774.7c101.4-74.6,132-135.8,132-256.3c0-120.5-30.6-181.7-132-256.3c-51.6-38.3-76.5-40.2-1040.6-45.9c-660-3.8-1012,0-1059.8,15.3c-193.2,55.5-267.8,321.4-135.8,480.1c97.5,114.8,74.6,112.9,1176.5,107.1C8454.8-1734.6,8479.7-1734.6,8531.3-1774.7z"/></g></g>
</svg>