<?xml version="1.0" encoding="utf-8"?>
<!-- Svg Vector Icons : http://www.onlinewebfonts.com/icon -->
<!DOCTYPE svg PUBLIC "-//W3C//DTD SVG 1.1//EN" "http://www.w3.org/Graphics/SVG/1.1/DTD/svg11.dtd">
<svg version="1.1" xmlns="http://www.w3.org/2000/svg" xmlns:xlink="http://www.w3.org/1999/xlink" x="0px" y="0px" viewBox="0 0 1000 1000" enable-background="new 0 0 1000 1000" xml:space="preserve">
<metadata> Svg Vector Icons : http://www.onlinewebfonts.com/icon </metadata>
<g><path style="fill:#00ac56" d="M374.7,260.5h433.8v43.4H374.7V260.5L374.7,260.5z M374.7,380.9h433.8v43.4H374.7V380.9L374.7,380.9z M374.7,501.3h433.8v43.4H374.7V501.3L374.7,501.3z M408.3,140.2h183.3v43.4H408.3V140.2L408.3,140.2z M191.4,260.5h139.9v43.4H191.4V260.5L191.4,260.5z M191.4,380.9h139.9v43.4H191.4V380.9L191.4,380.9z M191.4,501.3h139.9v43.4H191.4V501.3L191.4,501.3z M938.7,602.1V53.4c0,0,0-43.4-43.4-43.4H104.7c-43.4,0-43.4,43.4-43.4,43.4v893.2c0,43.4,43.4,43.4,43.4,43.4h443.6l-43.4-43.4H104.7V53.4h790.7v505.3l43.4,53.2L938.7,602.1L938.7,602.1z M742.9,598.7l-38.9-0.4v78.1c0,4.3,5.3,15.9,20.1,15.9c12.2,0,19-11.6,19-15.9l-0.1-34.7c117.3,0,151.8,73.4,151.8,151.5c0,78.1-56.1,152.2-155.1,152.2c-78.2,0-150-73.7-150-151.8c0-39,10-75.9,44.8-108.5c3-3.1,11.8-22.6,1.8-30.8c-9.1-9.5-25.6-3.1-28.7,0c-20.8,14.6-59.9,61.2-59.9,139.5c0,107.5,78.2,195,195.2,195c117.5,0,195.7-78.1,195.2-195C938.5,676.4,850.5,598.7,742.9,598.7L742.9,598.7z M775.7,836.4c20.1-15.9,20.6-43.8,7.1-60.9c-13.1-16.6-128.2-94.7-128.2-94.7s45.3,129.8,60.1,148.6C729.9,848.3,755.4,852.5,775.7,836.4L775.7,836.4z"/></g>
</svg>