<?xml version="1.0" encoding="utf-8"?>
<!-- Svg Vector Icons : http://www.onlinewebfonts.com/icon -->
<!DOCTYPE svg PUBLIC "-//W3C//DTD SVG 1.1//EN" "http://www.w3.org/Graphics/SVG/1.1/DTD/svg11.dtd">
<svg version="1.1" xmlns="http://www.w3.org/2000/svg" xmlns:xlink="http://www.w3.org/1999/xlink" x="0px" y="0px" viewBox="0 0 1000 1000" enable-background="new 0 0 1000 1000" xml:space="preserve">
<metadata> Svg Vector Icons : http://www.onlinewebfonts.com/icon </metadata>
<g><path style="fill:#eb4f38" d="M500.1,266.7c-127.8,0-231.4,103.6-231.4,231.4s103.6,231.4,231.4,231.4c127.8,0,231.4-103.6,231.4-231.4S627.9,266.7,500.1,266.7z M500.1,684.4c-102.9,0-186.3-83.4-186.3-186.3c0-102.9,83.4-186.3,186.3-186.3c102.9,0,186.3,83.4,186.3,186.3C686.4,601,603,684.4,500.1,684.4z"/><path style="fill:#eb4f38" d="M944.6,563.8c-2.5-1.4-5-2.7-7.5-3.9c-3.5-1.8-6.9-3.5-10.1-5.4c-17.4-10.5-28.7-27.4-31-46.1c-2.4-18.9,4.6-38.2,19.1-52.9c9.7-9.8,21.8-16.1,34.6-22.8l2.7-1.4c26.6-13.8,39.8-35.9,37.3-62.2c-4.1-42.1-15.4-76.5-34.5-105.1C937.3,237,918.5,225,894.4,225c-9.8,0-20.6,2-33.1,6c-8.7,2.8-19,6-29.2,7.7c-3.3,0.6-6.7,0.8-10,0.8c-28,0-53.9-19.6-60.4-45.6c-3.8-15.2-2-31.6,5.3-50.1c11.4-28.5,4.9-54.8-19.1-78c-12.3-11.9-29.3-26.6-51-34.4c-27.9-10-50.3-16.6-69-16.6c-30.3,0-50.9,16.4-73.5,58.4c-11.1,20.7-30.6,32.5-53.5,32.5c-22.6,0-44.2-11.9-57.6-31.8c-3-4.5-5.6-9.4-8.2-14.6c-2.1-4.1-4.3-8.4-6.8-12.5c-12.9-21.2-31.5-32.5-53.9-32.5c-2.8,0-5.7,0.2-8.7,0.5c-23.1,2.8-49.9,7.2-74.1,19c-67.9,32.9-74.6,61.7-63.7,113.8c9.5,45.5-7.1,77.9-44.6,86.5c-5.4,1.2-10.8,1.8-16.7,1.8c-11.2,0-23.2-2.2-38.8-7.1c-8.3-2.6-16.3-3.9-23.9-3.9c-20.4,0-38.2,9.2-52.9,27.5c-15.9,19.7-27,43-35.1,73.4c-15.3,57.9-2.2,88.2,50,115.8c20.6,10.9,34.3,26.5,38.4,43.8c3.6,14.9,0,30.5-10.2,45c-9.9,13.9-23.7,24.6-42.3,32.7c-26.2,11.4-40.4,32-41,59.7c-1.1,50.6,15.4,94.6,49.2,130.7c12.5,13.4,28.4,20.1,47.3,20.1c4.3,0,8.8-0.4,13.3-1.1c5.2-0.8,10.2-1.9,15.1-3c8.6-1.9,16.7-3.7,24.5-3.7c2.1,0,4,0.1,5.9,0.4l1.1,0.1l1.1-0.1c2.6-0.3,5.2-0.5,7.8-0.5c16.6,0,31.3,7.6,40.3,20.9c9.5,13.9,11.3,31.9,4.9,48.2c-1.5,3.8-2.6,7.6-3.6,11.3c-0.8,2.9-1.6,5.6-2.5,8.2c-10.9,30.4-4.5,56.7,18.9,78.2c23.7,21.7,53.3,36.9,90.6,46.3c18.3,4.6,31.4,6.7,42.7,6.7c33.6,0,51.4-19.5,72.5-55.4c15.2-25.8,34.4-38.4,58.9-38.4c0.3,0,0.6,0,0.9,0c24.6,0.3,42.9,12.4,57.6,38c1.6,2.8,3.1,5.8,4.7,8.9c2.2,4.3,4.5,8.8,7.2,13.1c14.1,22.3,33.7,33.7,58.2,33.7c4.1,0,8.4-0.3,12.8-0.9c33.7-4.8,65-16.4,93-34.6c36.9-24,48.3-57.4,32.9-96.6c-9.4-23.9-7.9-48.4,3.8-65.7c10-14.7,26.5-22.5,47.6-22.5c4.7,0,9.6,0.4,14.7,1.2c1.5,0.2,2.9,0.4,4.4,0.7c6,0.9,11.6,1.7,17.1,2.9c10.9,2.4,20.7,3.6,29.8,3.6c0,0,0,0,0,0c31.9,0,55.4-14.7,76.1-47.6c14.9-23.6,23.8-50.3,27.2-81.5C990.9,608.6,976.6,581.6,944.6,563.8L944.6,563.8z M723,856.6c12.1,39.4,9.2,46.8-26.1,66.2c-10.8,5.9-20.3,10.1-29.2,12.8c-17.2,5.3-28.9,8.4-38.2,8.4c-13,0-22.3-5.5-36.7-35.9c-18-37.7-51.4-58.4-94-58.4h-0.5c-39.5,0.2-71.6,20.6-95.5,60.8c-16.5,27.8-21.3,33.8-34.5,33.8c-7,0-16.4-1.7-30.1-4.7c-27.9-6-52.8-18.3-74.1-36.7c-13-11.3-15.8-21.8-9.4-36.5c8.2-19,15.9-41.9,10.4-68.1c-9.7-46.3-43.8-75.1-88.8-75.1c-5.1,0-10.3,0.4-15.6,1.1c-9.5,1.3-17.4,2.5-24.7,3.7c-11.5,1.9-19.5,2.7-25.8,2.7c-18.3,0-25.9-6.7-40.4-35.7C63.9,683,59.1,669.8,56,657c-5.2-21.6-5.8-31.3-2.7-38.4c3.5-7.9,13.5-14.6,30.6-24.3c56.4-31.9,78.7-90.4,53-139.1c-13.1-24.8-33.7-43.6-61.3-55.6c-18.8-8.2-26.1-21.1-23.8-41.9c3.2-29,13.4-54.7,30.1-76.4c7.8-10.1,15.4-14.6,24.5-14.6c3.5,0,7.4,0.7,11.6,2c16.4,5.2,32.5,9.8,49.4,9.8c4.8,0,9.6-0.4,14.1-1.2c35-6.1,58.9-20.2,73.1-43.2c11.9-19.3,17.1-44.2,16.6-80.6c0-2.1-0.6-3.8-0.9-4.9c-0.1-0.3-0.2-0.5-0.2-0.7c-8.3-49-2.5-59.1,44-77.3c9.1-3.6,18.1-6.4,26.7-8.5c13.7-3.3,24-5.7,31.1-5.7c11,0,15.4,5.8,31.1,32.7c22.5,38.7,54.4,58.4,94.9,58.4c0.6,0,1.2,0,1.8,0c41.1-0.6,74.3-21.3,95.9-59.9C609.7,62.4,615.4,57,627.4,57c6.9,0,16,1.8,27.6,4.6c19,4.5,33.1,10.5,44.3,18.7c18.8,13.7,27.4,22.7,29.9,31c2.4,8-0.4,17-5.5,32.4c-11.1,33.2-6.4,67.5,12.7,94c19.5,27,51.4,42.5,87.5,42.5c0.3,0,0.6,0,0.9,0c1.5,0.1,3,0.2,4.5,0.2c16.6,0,34.9-6.4,51.1-12.1c4.3-1.5,8.2-2.3,11.8-2.3c7.5,0,13.7,3.3,19.6,10.4c21.8,26.2,33.3,57.8,35.3,96.6c0.6,13.1-8.5,18.5-23.5,26.3l-0.2,0.1c-24.7,12.7-58.4,34.9-67,80.1c-9.1,48.2,11,92,51.3,111.6c46.1,22.4,44.3,36.2,30,85.4c-3.5,12-10.4,24.1-21.7,38.1c-9.6,11.9-20.4,17.7-33.1,17.7c-4.5,0-9.3-0.7-14.3-2.2c-17.9-5.3-34-7.8-49.2-7.8c-7.2,0-14.4,0.6-21.3,1.8c-27.9,4.8-51.2,20.4-65.6,43.8C716.9,793.3,713.5,825.6,723,856.6L723,856.6z"/></g>
</svg>